<?xml version="1.0" encoding="utf-8"?>
<!-- Generator: Adobe Illustrator 28.1.0, SVG Export Plug-In . SVG Version: 6.00 Build 0)  -->
<svg version="1.1" id="Layer_1" xmlns="http://www.w3.org/2000/svg" xmlns:xlink="http://www.w3.org/1999/xlink" x="0px" y="0px"
	 viewBox="0 0 512 512" style="enable-background:new 0 0 512 512;" xml:space="preserve">
<g>
	<path d="M492.6,398.5c2.5-3.8,4.2-8.1,5-12.6c0.7-4.5,0.5-9.1-0.6-13.5c-1.7-6.4-5.1-11.7-9.8-15.5c2.3-3.7,3.7-7.9,4.4-12.2
		c1.4-9.4-1.8-18.7-8.8-26.3c-5.4-5.9-13.1-9.2-21.7-9.2c-1,0-2,0.1-3,0.2c6.5-20.7,9.7-42.2,9.7-63.8
		c0-117.7-95.4-213.2-213.2-213.2c-117.7,0-213.2,95.4-213.2,213.2c0,21.6,3.2,43,9.7,63.7h-0.2c-8.5,0-16.2,3.3-21.7,9.2
		c-7,7.6-10.1,17-8.8,26.3c0.6,4.3,2.1,8.4,4.4,12.2c-4.7,3.8-8.2,9.1-9.8,15.5c-1.2,4.4-1.4,9-0.6,13.5c0.8,4.5,2.4,8.8,5,12.6
		c-0.4,0.7-0.9,1.4-1.3,2.2c-4.2,8-4.5,17-0.8,25.5C23,438.9,37,449,64.2,459.8c16.9,6.7,32.4,11,32.5,11
		c22.4,5.8,42.6,8.8,60.1,8.8c28.8,0,50.2-7.9,63.9-23.4c23.2,3.7,46.8,3.5,70-0.4c13.7,15.8,35.3,23.8,64.3,23.8
		c17.5,0,37.8-2.9,60.1-8.8c0.1,0,15.6-4.3,32.6-11c27.2-10.8,41.2-20.8,46.9-33.6c3.7-8.4,3.4-17.5-0.8-25.5
		C493.5,400,493.1,399.2,492.6,398.5z M211,431.8c-1.2,2.1-2.4,4.1-3.8,6c-3.5,5.2-8.2,9.2-13.6,12.1c-10.3,5.6-23.4,7.6-36.7,7.6
		c-21,0-42.5-4.9-54.6-8c-0.6-0.2-74-20.9-64.7-38.5c1.6-3,4.1-4.2,7.4-4.2c13.1,0,36.9,19.5,47.1,19.5c2.3,0,3.9-1,4.6-3.3
		c4.4-15.6-66.3-22.2-60.4-44.9c1-4,3.9-5.6,7.9-5.6c17.3,0,56.1,30.4,64.2,30.4c0.6,0,1.1-0.2,1.3-0.6c0-0.1,0.1-0.1,0.1-0.2
		c3.8-6.3,1.6-10.9-24.5-26.9l-2.5-1.5c-28.7-17.4-48.9-27.9-37.4-40.3c1.3-1.4,3.2-2.1,5.5-2.1c2.7,0,6,0.9,9.5,2.4
		c15.2,6.4,36.2,23.9,45,31.5c1.4,1.2,2.8,2.4,4.1,3.6c0,0,11.1,11.6,17.8,11.6c1.5,0,2.9-0.6,3.8-2.1c4.8-8-44.3-45.2-47.1-60.6
		c-1.9-10.4,1.3-15.7,7.2-15.7c2.8,0,6.2,1.2,10,3.6C113,313,135.7,352,144,367.1c2.8,5.1,7.5,7.2,11.8,7.2c8.5,0,15.1-8.4,0.8-19.1
		c-21.5-16.1-14-42.5-3.7-44.1c0.4-0.1,0.9-0.1,1.3-0.1c9.4,0,13.5,16.1,13.5,16.1s12.1,30.4,32.9,51.1
		C219.4,397,222,412.5,211,431.8z M278.2,435.3l-1.1,0.1l-1.8,0.2c-1,0.1-1.9,0.2-2.9,0.3l-0.9,0.1l-0.9,0.1l-1.2,0.1l-1.4,0.1
		l-1.4,0.1l-0.3,0c-0.4,0-0.7,0-1.1,0.1l-0.5,0c-0.4,0-0.8,0-1.3,0.1l-1.5,0.1l-1.3,0l-0.9,0h-0.5c-0.3,0-0.6,0-0.8,0h-0.4
		c-0.3,0-0.6,0-0.8,0l-1.1,0h-1.6c-1.2,0-2.5,0-3.7,0l-1,0c-0.3,0-0.6,0-0.9,0l-1.1,0l-1.3-0.1l-1.2-0.1l-0.3,0l-1.1-0.1
		c-0.3,0-0.6,0-0.9-0.1l-0.7,0c-0.9-0.1-1.8-0.1-2.7-0.2l-1-0.1c-0.4,0-0.8-0.1-1.2-0.1c-0.5,0-0.9-0.1-1.4-0.1
		c-0.8-0.1-1.6-0.2-2.4-0.2h0c11.5-25.7,5.7-49.7-17.6-73c-15.3-15.3-25.4-37.8-27.5-42.7c-4.3-14.6-15.6-30.9-34.3-30.9
		c-1.6,0-3.2,0.1-4.7,0.4c-8.2,1.3-15.4,6-20.5,13.1c-5.5-6.9-10.9-12.4-15.8-15.5c-7.3-4.7-14.7-7-21.8-7
		c-8.9,0-16.9,3.7-22.4,10.3l-0.1,0.2c-0.1-0.4-0.2-0.9-0.3-1.3l0-0.1c-1.1-4.5-1.9-9.1-2.7-13.7c0,0,0-0.1,0-0.1
		c-0.1-0.3-0.1-0.7-0.2-1c-0.2-1-0.3-2.1-0.4-3.1c-0.1-0.5-0.1-0.9-0.2-1.4l-0.2-1.4c-0.1-0.5-0.1-0.9-0.2-1.3l0-0.1
		c-0.2-1.8-0.4-3.6-0.5-5.5l-0.1-0.7l-0.1-1.2c0-0.3-0.1-0.7-0.1-1c0-0.1,0-0.2,0-0.2c-0.1-0.9-0.1-1.8-0.2-2.7c0-0.5-0.1-1-0.1-1.4
		l-0.1-1.3l0-0.4l0-1.2l0-1c0-0.4,0-0.8,0-1.2c0-0.4,0-0.8,0-1.2c0-0.4,0-0.8,0-1.2c0-0.4,0-0.8,0-1.2
		c0-105.6,85.6-191.2,191.2-191.2c105.6,0,191.2,85.6,191.2,191.2v2.5c0,0.4,0,0.8,0,1.2c0,0.3,0,0.7,0,1c0,0.3,0,0.6,0,0.9
		c0,0.4,0,0.8,0,1.2v0l-0.1,1.3c0,0.4,0,0.8-0.1,1.2l0,0.3l-0.1,1.3c-0.1,2.7-0.4,5.4-0.6,8v0c0,0.4-0.1,0.9-0.1,1.3l-0.1,1l-0.2,2
		l-0.1,1l-0.2,1.2c-0.1,0.4-0.1,0.9-0.2,1.3c-0.1,0.5-0.1,1-0.2,1.5l-0.2,1.2l-0.2,1.3c-0.1,0.4-0.1,0.9-0.2,1.3
		c-0.1,0.4-0.1,0.9-0.2,1.3c-0.2,0.9-0.3,1.7-0.5,2.6c-0.3,1.3-0.5,2.6-0.8,3.9l-0.3,1.3c-0.1,0.4-0.2,0.9-0.3,1.3
		c-5.4-5.2-12.5-8.1-20.4-8.1c-7.1,0-14.5,2.4-21.8,7c-4.9,3.1-10.2,8.6-15.8,15.5c-5.1-7.1-12.3-11.8-20.5-13.1
		c-1.6-0.2-3.2-0.4-4.7-0.4c-18.8,0-30.1,16.3-34.3,30.9c-2.1,4.9-12.3,27.5-27.6,42.8C272.7,385.8,266.8,409.7,278.2,435.3z
		 M475.5,383.9l-0.1,0.2c-0.2,0.5-0.4,1-0.7,1.5c-0.2,0.4-0.4,0.7-0.6,1c-0.4,0.6-0.9,1.2-1.4,1.8c-0.1,0.1-0.2,0.3-0.4,0.4
		c-0.2,0.2-0.4,0.4-0.6,0.6c-3.4,3.4-8.6,6.3-14.4,9c-0.7,0.3-1.3,0.6-2,0.9l-0.7,0.3c-0.5,0.2-0.9,0.4-1.4,0.6
		c-0.5,0.2-0.9,0.4-1.4,0.6l-1.4,0.6c-3.3,1.4-6.7,2.6-10,3.9l-1.4,0.5l-1.4,0.5c-0.9,0.4-1.8,0.7-2.7,1.1l-1.3,0.5l-1.3,0.5
		l-0.6,0.3c-0.4,0.2-0.9,0.4-1.3,0.5c-9.7,4.2-16.6,8.4-15.2,13.6c0,0.1,0.1,0.3,0.1,0.4c0.1,0.4,0.3,0.8,0.5,1.1
		c0.1,0.2,0.3,0.4,0.5,0.6c1.7,1.8,4.9,1.5,8.8,0.1c0.6-0.2,1.1-0.4,1.7-0.6l0.3-0.1c0.9-0.4,1.9-0.8,2.8-1.3
		c0.2-0.1,0.5-0.2,0.7-0.4c4.8-2.4,10.3-5.5,15.7-8.4c2.2-1.2,4.4-2.3,6.6-3.3c5.1-2.4,10-4.1,13.9-4.1c1.8,0,3.4,0.4,4.8,1.2
		l0.2,0.1c0.8,0.6,1.5,1.4,2.1,2.2c0.1,0.2,0.2,0.3,0.3,0.5c1.9,3.6,0.3,7.4-3.4,11.1c-3.6,3.6-9.2,7-15.6,10.3
		c-0.5,0.2-0.9,0.5-1.4,0.7c-19,9.3-43.9,16.4-44.2,16.4c-6.6,1.7-16.1,4-26.8,5.7l-1.6,0.2l-0.3,0c-1.2,0.2-2.4,0.4-3.6,0.5
		c-1.2,0.2-2.4,0.3-3.7,0.5l-0.2,0c-4.5,0.5-9,0.9-13.5,1H360c-1.6,0.1-3.3,0.1-4.9,0.1h-1.9c-2.5,0-5-0.1-7.5-0.3
		c-0.1,0-0.1,0-0.2,0c-0.9-0.1-1.8-0.2-2.7-0.2c-0.9-0.1-1.8-0.2-2.8-0.3c-0.6-0.1-1.2-0.2-1.8-0.3c-0.6-0.1-1.2-0.2-1.8-0.3
		l-0.8-0.2l-0.1,0c-0.9-0.2-1.7-0.4-2.6-0.6c-0.5-0.1-1-0.2-1.5-0.4l-0.3-0.1c-0.2-0.1-0.5-0.1-0.7-0.2l-0.1,0l-0.8-0.2
		c-0.3-0.1-0.6-0.2-0.8-0.2l-0.1,0l-0.7-0.2c-0.3-0.1-0.6-0.2-0.8-0.3l-0.7-0.2l-0.5-0.2c-0.5-0.2-1-0.3-1.4-0.5l-0.4-0.2l-0.4-0.1
		c-0.7-0.3-1.4-0.6-2.1-0.9l-0.5-0.2l-0.1,0c-0.2-0.1-0.3-0.2-0.5-0.2c-0.3-0.2-0.6-0.3-1-0.5l-0.1,0l-0.5-0.2
		c-0.8-0.4-1.6-0.9-2.4-1.4l-0.4-0.3c-0.2-0.1-0.4-0.3-0.6-0.4l-0.6-0.4l-0.6-0.4l-0.4-0.3c-0.4-0.3-0.8-0.6-1.1-0.8l-0.6-0.5
		c-0.2-0.2-0.5-0.4-0.7-0.6c-0.2-0.2-0.4-0.3-0.6-0.5l0,0c-0.2-0.2-0.4-0.4-0.6-0.5c-0.2-0.2-0.4-0.4-0.6-0.5l0,0
		c-0.2-0.2-0.4-0.4-0.6-0.6c-0.2-0.2-0.4-0.4-0.6-0.6c-0.2-0.2-0.4-0.4-0.6-0.6c-0.2-0.2-0.4-0.4-0.5-0.6l-0.1-0.1
		c-0.2-0.2-0.3-0.4-0.5-0.6c-0.4-0.4-0.7-0.9-1-1.3c-0.3-0.5-0.7-0.9-1-1.4l-0.3-0.5c-0.4-0.6-0.8-1.2-1.2-1.8
		c-0.3-0.4-0.6-0.9-0.9-1.4c-0.2-0.3-0.4-0.6-0.5-0.9l-0.1-0.1c-0.2-0.3-0.3-0.5-0.5-0.8c-0.1-0.1-0.2-0.3-0.3-0.5
		c-0.1-0.2-0.2-0.3-0.3-0.5l-0.1-0.2l-0.1-0.2c-0.2-0.3-0.3-0.6-0.5-0.9c-0.1-0.1-0.1-0.3-0.2-0.4l-0.2-0.4l-0.2-0.4
		c-0.6-1.1-1.1-2.3-1.6-3.5l-0.2-0.4c-0.1-0.3-0.2-0.6-0.3-0.8c-0.1-0.1-0.1-0.3-0.2-0.4c-0.3-0.7-0.5-1.4-0.8-2.1
		c-0.1-0.3-0.2-0.5-0.2-0.8c-0.2-0.6-0.3-1.2-0.5-1.7c-0.2-0.7-0.3-1.4-0.5-2.1c0-0.1-0.1-0.3-0.1-0.4c-0.1-0.7-0.2-1.4-0.3-2
		c0-0.1,0-0.3-0.1-0.4l0-0.4c-0.1-0.5-0.1-1.1-0.1-1.6c0-0.1,0-0.3,0-0.4c0-0.3,0-0.5,0-0.8c-0.1-10.8,5.3-21.1,17-32.8
		c20.8-20.8,32.9-51.1,32.9-51.1s0.3-1.3,1-3.1c0.1-0.3,0.2-0.5,0.3-0.8c0.4-1,0.8-2,1.3-3l0.1-0.2c0.4-0.8,0.9-1.7,1.4-2.4
		c0.1-0.2,0.2-0.4,0.4-0.5c0.4-0.5,0.8-1.1,1.2-1.6c0.2-0.3,0.5-0.6,0.7-0.8c0.1-0.1,0.2-0.2,0.3-0.3c1.2-1.2,2.6-2.3,4.1-2.8
		l0.2-0.1c0.1,0,0.3-0.1,0.4-0.1c0.2,0,0.3-0.1,0.5-0.1l0.1,0c0.3-0.1,0.7-0.1,1-0.1h0c0.2,0,0.4,0,0.5,0c0.2,0,0.4,0,0.7,0
		c0.2,0,0.5,0,0.7,0.1c1.9,0.3,3.7,1.4,5.2,3.1c0.6,0.7,1.1,1.4,1.6,2.1c0.3,0.5,0.6,1,0.9,1.5c0.1,0.2,0.2,0.4,0.3,0.7
		c0.3,0.6,0.5,1.2,0.7,1.7c0.5,1.4,0.9,2.8,1.1,4.3c0.2,1.3,0.3,2.6,0.4,3.8c0,0.7,0,1.4,0,2.1c-0.1,3.3-0.8,6.5-2,9.6
		c-0.1,0.3-0.2,0.6-0.3,0.8c-0.2,0.6-0.5,1.1-0.8,1.7c-0.2,0.4-0.4,0.8-0.7,1.3c-0.2,0.3-0.3,0.6-0.5,0.8c-0.4,0.7-0.8,1.4-1.3,2.1
		l-0.3,0.4c-1.1,1.6-2.4,3-3.7,4.4c-1.3,1.3-2.8,2.6-4.3,3.7c-1.5,1.1-2.9,2.4-4.3,3.7c-3.8,4-4.7,7.5-3.8,10.2
		c0.1,0.4,0.3,0.8,0.5,1.2c0.3,0.4,0.6,0.8,0.9,1.2l0.1,0.1l0.1,0.1c0.1,0.1,0.3,0.3,0.4,0.4l0.2,0.1c0.4,0.3,0.8,0.5,1.2,0.8
		c0.1,0.1,0.2,0.1,0.4,0.2c0.4,0.2,0.9,0.4,1.4,0.5c0.1,0,0.3,0.1,0.4,0.1l0.2,0l0.2,0.1l0.2,0l0.2,0l0.2,0l0.2,0
		c0.1,0,0.3,0.1,0.4,0.1l0.1,0l0.3,0l0.2,0l0.3,0h0.2l0.3,0h0.9l0.2,0l0.3,0l0.4,0l0.3,0c0.1,0,0.2,0,0.2,0c1-0.1,2-0.4,2.9-0.8
		l0.4-0.2c0.2-0.1,0.5-0.2,0.7-0.3c0.4-0.2,0.9-0.5,1.3-0.7c0.6-0.4,1.1-0.8,1.6-1.3c0.1-0.1,0.2-0.2,0.4-0.3
		c0.1-0.1,0.1-0.1,0.2-0.2c0.1-0.1,0.2-0.2,0.3-0.3c0.8-0.9,1.5-1.9,2.1-2.9c4.9-9,10.1-17.8,15.5-26.5l0.7-1.2l0.7-1.2
		c0.4-0.6,0.8-1.2,1.1-1.8l0.4-0.6c1.3-2,2.5-3.9,3.8-5.9l0.8-1.2c1.5-2.3,3.1-4.5,4.6-6.6l0.8-1c1.7-2.3,3.4-4.5,5.2-6.7l0.7-0.9
		c0.1-0.1,0.2-0.3,0.4-0.4c0.2-0.3,0.5-0.5,0.7-0.8c0.1-0.1,0.2-0.3,0.3-0.4l0.7-0.8l0.3-0.4c0.3-0.4,0.7-0.7,1-1.1
		c0.2-0.2,0.4-0.5,0.7-0.7c1.3-1.3,2.7-2.5,4.2-3.5l0.4-0.2c0.3-0.2,0.7-0.4,1-0.6c6-3.4,10.9-3.6,13.7-0.8c1.7,1.7,2.7,4.6,2.6,8.5
		c0,0.2,0,0.4,0,0.5v0.2c0,0.2,0,0.4,0,0.5c0,0.2,0,0.5,0,0.7c0,0.2,0,0.4-0.1,0.6c0,0.1,0,0.1,0,0.2c0,0.2,0,0.4-0.1,0.5
		c0,0.1,0,0.1,0,0.2c0,0.2-0.1,0.5-0.1,0.7c0,0.2-0.1,0.4-0.1,0.7l-0.1,0.4c-0.1,0.4-0.1,0.7-0.3,1.1c-0.2,0.7-0.4,1.3-0.7,1.9
		c-0.4,0.9-0.8,1.7-1.3,2.5c-0.3,0.4-0.5,0.9-0.8,1.3c-0.3,0.5-0.6,0.9-0.9,1.4c-0.8,1.1-1.6,2.3-2.5,3.3l-0.4,0.5
		c-1.4,1.7-2.9,3.5-4.3,5.1l-0.5,0.5c-0.6,0.7-1.3,1.4-1.9,2.1l-0.5,0.5c-0.3,0.4-0.7,0.7-1,1.1c-0.3,0.4-0.7,0.7-1,1.1l-1,1.1
		l-1.1,1.1l-1.1,1.1c-0.7,0.7-1.4,1.5-2.1,2.2c-10.2,10.5-21,20.9-24.7,27.5c-0.2,0.4-0.5,0.9-0.7,1.3c-0.5,1.2-0.7,2.2-0.6,3
		c0,0.3,0.1,0.5,0.3,0.8c0.2,0.4,0.5,0.7,0.7,1c0.1,0.1,0.3,0.3,0.4,0.4c0.8,0.5,1.7,0.8,2.6,0.8h0.3l0.3,0l0.3,0l0.2,0
		c0,0,0.1,0,0.1,0l0.2,0l0.1,0l0.2-0.1l0.1,0c0.1,0,0.2,0,0.3-0.1c0.1,0,0.2-0.1,0.3-0.1c0.4-0.1,0.9-0.3,1.3-0.5
		c0.2-0.1,0.4-0.2,0.7-0.3c0.1-0.1,0.2-0.1,0.3-0.2l0.3-0.2c0.8-0.4,1.6-0.9,2.4-1.4l0.3-0.2c0.1-0.1,0.2-0.1,0.3-0.2l0.3-0.2
		l0.2-0.1l0.5-0.3c0.5-0.3,0.9-0.6,1.3-1l0,0l0.7-0.5c0.9-0.7,1.8-1.5,2.6-2.2l0.5-0.5l0,0l0.3-0.2c0.7-0.6,1.2-1.1,1.7-1.6l0.2-0.2
		c0.2-0.2,0.3-0.3,0.5-0.4l0.3-0.3l0.1-0.1l0,0l0.3-0.3l0.2-0.2l0,0l0.1-0.1l0.1-0.1l0,0l0.1-0.1l0.5-0.5l0.3-0.3
		c0.2-0.1,0.3-0.3,0.5-0.4l0.3-0.3c0.1-0.1,0.1-0.1,0.2-0.2l0.4-0.3l0.5-0.5l0.3-0.2c1.1-1,2.4-2.1,4-3.4l0.6-0.5l1-0.9l1.1-0.9
		c1.4-1.2,2.9-2.4,4.5-3.6l1-0.8c0.9-0.7,1.8-1.4,2.7-2.1c0.4-0.3,0.7-0.6,1.1-0.9c0.9-0.7,1.9-1.5,2.8-2.2c2.2-1.6,4.4-3.3,6.7-4.9
		l1-0.7c0.7-0.5,1.4-0.9,2-1.4l0.6-0.4c1.2-0.8,2.4-1.6,3.7-2.4l0.6-0.4l0.6-0.4c0.6-0.4,1.2-0.7,1.8-1.1l0.6-0.4l1.2-0.7l1.2-0.7
		l0.2-0.1l0.9-0.5c0.4-0.2,0.8-0.4,1.2-0.6l0.6-0.3l0.6-0.3c0.2-0.1,0.4-0.2,0.6-0.3c1.3-0.6,2.6-1.2,3.9-1.7
		c0.4-0.2,0.7-0.3,1.1-0.4l1-0.4c0.3-0.1,0.6-0.2,0.9-0.3l0.1,0c0.2-0.1,0.3-0.1,0.5-0.1l0,0c0.3-0.1,0.6-0.2,1-0.2h0
		c0.9-0.2,1.8-0.4,2.7-0.5c0.4,0,0.8-0.1,1.3-0.1h0.2c0.3,0,0.6,0,0.8,0c0.1,0,0.2,0,0.4,0h0.1c0.1,0,0.2,0,0.4,0.1
		c0.1,0,0.2,0,0.4,0.1h0c0.1,0,0.2,0.1,0.3,0.1c0.6,0.2,1.3,0.5,1.8,0.8c0.3,0.2,0.5,0.4,0.8,0.6l0.1,0.1c0,0,0.1,0.1,0.1,0.1
		l0.1,0.1c1,1.1,1.9,2.3,2.5,3.6l0.1,0.2c0.2,0.5,0.4,1,0.5,1.6c0.4,1.6,0.2,3.3-0.4,4.9c-0.2,0.6-0.5,1.2-0.9,1.8
		c-0.8,1.3-1.7,2.6-2.8,3.7l-0.2,0.2c-0.3,0.4-0.7,0.7-1,1.1c-0.2,0.2-0.3,0.3-0.5,0.5l-0.5,0.5l-0.3,0.2c-0.7,0.6-1.3,1.1-2,1.7
		c-0.4,0.3-0.8,0.7-1.2,1c-1.5,1.1-3,2.2-4.5,3.3c-0.9,0.6-1.9,1.3-2.8,1.9c-2.3,1.5-4.7,3-7,4.4c-5,3.1-10.5,6.3-16.3,9.9l-1.5,0.9
		c-1.7,1-3.2,2-4.7,2.9l-0.7,0.5l-1.4,0.9c-0.9,0.6-1.9,1.2-2.8,1.8l-0.7,0.5c-0.4,0.2-0.7,0.5-1.1,0.7l-0.4,0.2l-1.1,0.7l-0.6,0.4
		l-0.7,0.5l-0.6,0.4c-1.1,0.7-2,1.5-2.9,2.1l-0.3,0.3c-0.5,0.4-1.1,0.8-1.6,1.2c-0.8,0.6-1.5,1.2-2.1,1.8l-0.3,0.3
		c-0.2,0.2-0.4,0.3-0.5,0.5c-0.1,0.1-0.2,0.2-0.3,0.3l-0.2,0.2c-0.4,0.4-0.7,0.7-1.1,1.1l-0.2,0.2c-0.4,0.4-0.7,0.8-1,1.2l-0.1,0.2
		c-0.2,0.3-0.4,0.7-0.6,1c0,0.1-0.1,0.2-0.1,0.3l-0.1,0.3l-0.1,0.2l-0.1,0.1l0,0.1l-0.1,0.2c-0.2,0.4-0.3,0.9-0.3,1.3l0,0.2l0,0.1
		v0.8c0,0.1,0,0.1,0,0.2l0,0.1c0,0.1,0,0.1,0,0.2c0,0.1,0,0.2,0,0.3v0c0,0.1,0,0.2,0.1,0.3s0,0.2,0.1,0.3c0,0.2,0.1,0.4,0.2,0.5
		c0,0.1,0.1,0.2,0.1,0.3c0,0,0,0,0,0.1l0.1,0.2l0.1,0.3c0.1,0.3,0.3,0.6,0.4,0.8l0.2,0.3l0.2,0.3c0,0,0.1,0.1,0.1,0.1l0.1,0.1
		l0.1,0.1l0.1,0.1c0.1,0.1,0.2,0.1,0.3,0.2c0.1,0,0.1,0,0.2,0.1c1.5,0.3,4.4-0.9,8.4-3c0.2-0.1,0.5-0.2,0.7-0.4l1.2-0.7l0.6-0.3
		c0.4-0.2,0.9-0.5,1.3-0.7l0.8-0.5c5.3-3,11.5-6.9,18-10.7c0.6-0.4,1.2-0.7,1.8-1.1l1.2-0.8c1.4-0.8,2.9-1.6,4.3-2.4
		c1.8-1,3.6-2,5.5-2.9l1.2-0.6c0.8-0.4,1.6-0.8,2.4-1.2c1.5-0.7,3-1.4,4.6-2l0.8-0.3l0.1,0c4.5-1.8,8.5-2.9,11.8-2.9
		c0.7,0,1.4,0.1,2.1,0.2h0c0.2,0,0.4,0.1,0.6,0.1h0c0.5,0.1,1.1,0.3,1.6,0.6c0.7,0.4,1.3,0.8,1.8,1.4c0.2,0.3,0.5,0.6,0.6,0.9
		c0.4,0.5,0.6,1.1,0.8,1.7c0.1,0.2,0.2,0.5,0.2,0.7C476.2,380,476.2,382,475.5,383.9z"/>
	<g>
		<path d="M187.2,193.6c2.8-1,6.4,0.5,9.8,1.9c4.4,1.8,8.6,3.4,10.5-0.1c2.6-4.8,3.6-10.3,3.1-15.7c-0.5-5.4-2.7-10.5-6.1-14.7
			c-3.5-4.2-8.1-7.3-13.3-8.8c-6.5-2-13.6-1.5-19.8,1.5c-6.2,2.9-11,8.1-13.6,14.4c-2.6,6.3-2.8,13.4-0.4,19.8c2.3,6.4,7,11.8,13,15
			c4.1,2.2,6.7-1.7,9.6-5.8C182,197.9,184.2,194.6,187.2,193.6z"/>
		<path d="M302.3,250.7l-0.8,0.4c-12.7,6.3-29.6,14.7-48.2,14.7c-18.6,0-35.5-8.4-48.2-14.7c-14.3-7.1-23.3-11.5-23.3,1.6
			c0,16.8,8,44.4,30.1,60.4c0,0,0,0,0,0c0,0,0,0,0,0c2.9-5.9,7-11.1,12-15.4c5-4.2,10.9-7.4,17.2-9.3c0.3-0.1,0.6-0.1,0.8,0
			c0,0,0,0,0.1,0c0.3,0.1,0.5,0.1,0.8,0.3c0.1,0,0.1,0.1,0.2,0.2c0.2,0.1,0.4,0.3,0.6,0.5c0.1,0.1,0.2,0.2,0.3,0.3
			c0.2,0.2,0.4,0.4,0.6,0.6c0.1,0.1,0.2,0.3,0.3,0.4c0.2,0.2,0.4,0.4,0.5,0.7c0.1,0.1,0.2,0.3,0.3,0.5c0.2,0.3,0.4,0.5,0.5,0.8
			c0.1,0.1,0.2,0.3,0.3,0.4c0.2,0.3,0.4,0.6,0.6,1c0,0,0,0,0,0c0.8,1.2,1.5,2.5,2.3,3.8c0.1,0.1,0.1,0.2,0.2,0.3
			c0.2,0.3,0.4,0.6,0.6,0.9c0.1,0.1,0.2,0.3,0.3,0.4c0.2,0.3,0.4,0.6,0.6,0.8c0.1,0.1,0.2,0.2,0.3,0.3c0.2,0.3,0.4,0.5,0.6,0.7
			c0.1,0.1,0.2,0.2,0.2,0.3c0.2,0.2,0.5,0.4,0.7,0.6c0.1,0,0.1,0.1,0.2,0.2c0.3,0.2,0.6,0.4,0.8,0.5c0,0,0,0,0,0
			c0.3,0.1,0.6,0.2,0.9,0.2c0.3,0,0.6-0.1,0.9-0.2c0,0,0,0,0.1,0c0.3-0.1,0.6-0.3,0.9-0.5c0.1,0,0.1-0.1,0.2-0.2
			c0.2-0.2,0.5-0.4,0.7-0.6c0.1-0.1,0.2-0.2,0.3-0.3c0.2-0.2,0.4-0.4,0.7-0.7c0.1-0.1,0.2-0.3,0.3-0.4c0.2-0.3,0.4-0.5,0.6-0.8
			c0.1-0.1,0.2-0.3,0.3-0.4c0.2-0.3,0.4-0.6,0.6-0.9c0.1-0.1,0.2-0.3,0.3-0.4c0.8-1.1,1.5-2.3,2.3-3.5c0-0.1,0.1-0.1,0.1-0.2
			c0.2-0.3,0.4-0.6,0.6-1c0.1-0.1,0.2-0.3,0.3-0.4c0.2-0.3,0.4-0.6,0.6-0.8c0.1-0.1,0.2-0.3,0.3-0.4c0.2-0.3,0.4-0.5,0.6-0.7
			c0.1-0.1,0.2-0.3,0.3-0.4c0.2-0.2,0.4-0.4,0.6-0.6c0.1-0.1,0.2-0.2,0.3-0.3c0.2-0.2,0.4-0.3,0.7-0.5c0.1,0,0.1-0.1,0.2-0.1
			c0.3-0.1,0.5-0.2,0.8-0.3c0,0,0.1,0,0.1,0c0.3,0,0.6,0,0.9,0.1c2.9,0.9,5.8,2.2,8.4,3.6c8,4.4,14.7,11.1,19.1,19.3
			c20.5-16.2,28.1-42.6,28.1-58.9C324.8,239.8,316.1,243.8,302.3,250.7z"/>
		<path d="M348.1,179.8c-0.4-4-1.7-8-3.8-11.5c-2.1-3.5-4.9-6.5-8.3-8.7c-3.4-2.3-7.2-3.8-11.2-4.4c-4-0.6-8.1-0.3-12,0.9
			c-3.9,1.2-7.5,3.2-10.5,5.9c-3,2.7-5.4,6.1-7,9.8c-1.6,3.8-2.3,7.8-2.1,11.9c0.2,4.1,1.3,8,3.2,11.6c1.9,3.5,6.1,1.9,10.5,0.1
			c3.5-1.4,7.1-2.8,9.8-1.9c3,1.1,5.2,4.3,7.3,7.3c2.9,4.1,5.5,8,9.6,5.8c4.8-2.6,8.7-6.5,11.3-11.3
			C347.5,190.7,348.6,185.2,348.1,179.8z"/>
	</g>
	<path d="M138,216.5c-2.4,1.6-5.3,2.6-8.2,2.9c-2.9,0.3-5.9-0.1-8.6-1.3c-2.2-0.9-4.1-2.2-5.8-3.9c-1.7-1.7-3-3.6-3.9-5.8
		c-1.1-2.7-1.6-5.7-1.3-8.6c0.3-2.9,1.3-5.7,2.9-8.2c2-2.9,4.8-5.2,8-6.6c3.3-1.4,6.9-1.7,10.3-1c3.5,0.7,6.7,2.4,9.2,4.9
		c2.5,2.5,4.2,5.7,4.9,9.2c0.7,3.5,0.3,7.1-1,10.3C143.3,211.7,141,214.5,138,216.5z M393.8,216.5c-2.4,1.6-5.3,2.6-8.2,2.9
		c-2.9,0.3-5.9-0.1-8.6-1.3c-2.2-0.9-4.1-2.2-5.8-3.9c-1.7-1.7-3-3.6-3.9-5.8c-1.1-2.7-1.6-5.7-1.3-8.6c0.3-2.9,1.3-5.7,2.9-8.2
		c1.5-2.2,3.4-4,5.7-5.4c2.3-1.4,4.8-2.2,7.4-2.5c2.6-0.3,5.3,0.1,7.8,1c2.5,0.9,4.7,2.3,6.6,4.2c2.5,2.5,4.2,5.7,4.9,9.2
		c0.7,3.5,0.3,7.1-1,10.3C399.1,211.7,396.8,214.5,393.8,216.5z"/>
</g>
</svg>
